<svg width="50" height="50" viewBox="0 0 50 50" fill="none" xmlns="http://www.w3.org/2000/svg">
<g id="icon=ghana" clip-path="url(#clip0_105_1555)">
<path id="Vector" d="M0 24.9999C0 28.0579 0.550098 30.9872 1.55498 33.6955L25 34.7825L48.445 33.6956C49.45 30.9872 50 28.0579 50 24.9999C50 21.9419 49.45 19.0126 48.445 16.3043L25 15.2173L1.55498 16.3042C0.550098 19.0126 0 21.9419 0 24.9999H0Z" fill="#FFDA44"/>
<path id="Vector_2" d="M25.0002 0C14.2511 0 5.0875 6.78437 1.55518 16.3044H48.4453C44.9129 6.78437 35.7493 0 25.0002 0V0Z" fill="#D80027"/>
<path id="Vector_3" d="M48.4452 33.6956H1.55518C5.0875 43.2155 14.2511 49.9999 25.0002 49.9999C35.7493 49.9999 44.9129 43.2155 48.4452 33.6956Z" fill="#496E2D"/>
<path id="Vector_4" d="M24.9999 16.3044L27.1581 22.947H34.1433L28.4926 27.0528L30.6508 33.6957L24.9999 29.5902L19.349 33.6957L21.5076 27.0528L15.8569 22.947H22.8417L24.9999 16.3044Z" fill="black"/>
</g>
<defs>
<clipPath id="clip0_105_1555">
<rect width="50" height="50" fill="white"/>
</clipPath>
</defs>
</svg>
